# Blender 3.5.0
# www.blender.org
mtllib tile.mtl
o Circle
v 0.000000 0.000000 -0.433012
v -0.500000 0.000000 0.433012
v 0.500000 0.000000 0.433012
v 0.000000 0.000000 -0.374028
v -0.448918 0.000000 0.403520
v 0.448918 0.000000 0.403520
v -0.500000 0.020000 0.433012
v 0.000000 0.020000 -0.433012
v 0.500000 0.020000 0.433012
v -0.448918 0.020000 0.403520
v 0.000000 0.020000 -0.374028
v 0.448918 0.020000 0.403520
vn -0.0000 1.0000 -0.0000
vn -0.0000 -0.0000 -1.0000
vn -0.0000 -0.0000 1.0000
vn 0.8660 -0.0000 0.5000
vn 0.8660 -0.0000 -0.5000
vn -0.8660 -0.0000 -0.5000
vn -0.8660 -0.0000 0.5000
vt 0.500000 1.000000
vt 0.066987 0.250000
vt 0.933013 0.250000
vt 0.500000 1.000000
vt 0.066987 0.250000
vt 0.933013 0.250000
vt 0.066987 0.250000
vt 0.500000 1.000000
vt 0.933013 0.250000
vt 0.066987 0.250000
vt 0.500000 1.000000
vt 0.933013 0.250000
s 0
f 4/4/1 5/5/1 6/6/1
f 5/5/2 12/12/2 6/6/2
f 3/3/3 7/7/3 2/2/3
f 4/4/4 10/10/4 5/5/4
f 8/8/1 12/12/1 9/9/1
f 9/9/1 10/10/1 7/7/1
f 8/8/1 10/10/1 11/11/1
f 1/1/5 9/9/5 3/3/5
f 2/2/6 8/8/6 1/1/6
f 6/6/7 11/11/7 4/4/7
f 5/5/2 10/10/2 12/12/2
f 3/3/3 9/9/3 7/7/3
f 4/4/4 11/11/4 10/10/4
f 8/8/1 11/11/1 12/12/1
f 9/9/1 12/12/1 10/10/1
f 8/8/1 7/7/1 10/10/1
f 1/1/5 8/8/5 9/9/5
f 2/2/6 7/7/6 8/8/6
f 6/6/7 12/12/7 11/11/7
