# Blender 3.5.0
# www.blender.org
mtllib card.mtl
o Cube
v 0.236413 0.448299 -0.002500
v 0.236533 0.450000 -0.000799
v 0.298299 0.381438 -0.002500
v 0.300000 0.381541 -0.000799
v 0.252484 0.446016 -0.002500
v 0.252960 0.447667 -0.000799
v 0.267361 0.439370 -0.002500
v 0.268267 0.440828 -0.000799
v 0.280154 0.428781 -0.002500
v 0.281411 0.429949 -0.000799
v 0.289986 0.414960 -0.002500
v 0.291497 0.415771 -0.000799
v 0.296174 0.398845 -0.002500
v 0.297837 0.399260 -0.000799
v 0.298299 -0.381438 -0.002500
v 0.300000 -0.381541 -0.000799
v 0.236413 -0.448299 -0.002500
v 0.236533 -0.450000 -0.000799
v 0.296174 -0.398845 -0.002500
v 0.297837 -0.399260 -0.000799
v 0.289986 -0.414960 -0.002500
v 0.291497 -0.415771 -0.000799
v 0.280154 -0.428781 -0.002500
v 0.281411 -0.429949 -0.000799
v 0.267361 -0.439370 -0.002500
v 0.268267 -0.440828 -0.000799
v 0.252484 -0.446016 -0.002500
v 0.252960 -0.447667 -0.000799
v 0.298299 0.381438 0.002500
v 0.300000 0.381541 0.000799
v 0.236413 0.448299 0.002500
v 0.236533 0.450000 0.000799
v 0.296174 0.398845 0.002500
v 0.297837 0.399260 0.000799
v 0.289986 0.414960 0.002500
v 0.291497 0.415771 0.000799
v 0.280154 0.428781 0.002500
v 0.281411 0.429949 0.000799
v 0.267361 0.439370 0.002500
v 0.268267 0.440828 0.000799
v 0.252484 0.446016 0.002500
v 0.252960 0.447667 0.000799
v 0.236413 -0.448299 0.002500
v 0.236533 -0.450000 0.000799
v 0.298299 -0.381438 0.002500
v 0.300000 -0.381541 0.000799
v 0.252484 -0.446016 0.002500
v 0.252960 -0.447667 0.000799
v 0.267361 -0.439370 0.002500
v 0.268267 -0.440828 0.000799
v 0.280154 -0.428781 0.002500
v 0.281411 -0.429949 0.000799
v 0.289986 -0.414960 0.002500
v 0.291497 -0.415771 0.000799
v 0.296174 -0.398845 0.002500
v 0.297837 -0.399260 0.000799
v -0.298299 0.381438 -0.002500
v -0.300000 0.381541 -0.000799
v -0.236413 0.448299 -0.002500
v -0.236533 0.450000 -0.000799
v -0.296174 0.398845 -0.002500
v -0.297837 0.399260 -0.000799
v -0.289986 0.414960 -0.002500
v -0.291497 0.415771 -0.000799
v -0.280154 0.428781 -0.002500
v -0.281411 0.429949 -0.000799
v -0.267361 0.439370 -0.002500
v -0.268267 0.440828 -0.000799
v -0.252484 0.446016 -0.002500
v -0.252960 0.447667 -0.000799
v -0.236413 -0.448299 -0.002500
v -0.236533 -0.450000 -0.000799
v -0.298299 -0.381438 -0.002500
v -0.300000 -0.381541 -0.000799
v -0.252484 -0.446016 -0.002500
v -0.252960 -0.447667 -0.000799
v -0.267361 -0.439370 -0.002500
v -0.268267 -0.440828 -0.000799
v -0.280154 -0.428781 -0.002500
v -0.281411 -0.429949 -0.000799
v -0.289986 -0.414960 -0.002500
v -0.291497 -0.415771 -0.000799
v -0.296174 -0.398845 -0.002500
v -0.297837 -0.399260 -0.000799
v -0.236413 0.448299 0.002500
v -0.236533 0.450000 0.000799
v -0.298299 0.381438 0.002500
v -0.300000 0.381541 0.000799
v -0.252484 0.446016 0.002500
v -0.252960 0.447667 0.000799
v -0.267361 0.439370 0.002500
v -0.268267 0.440828 0.000799
v -0.280154 0.428781 0.002500
v -0.281411 0.429949 0.000799
v -0.289986 0.414960 0.002500
v -0.291497 0.415771 0.000799
v -0.296174 0.398845 0.002500
v -0.297837 0.399260 0.000799
v -0.298299 -0.381438 0.002500
v -0.300000 -0.381541 0.000799
v -0.236413 -0.448299 0.002500
v -0.236533 -0.450000 0.000799
v -0.296174 -0.398845 0.002500
v -0.297837 -0.399260 0.000799
v -0.289986 -0.414960 0.002500
v -0.291497 -0.415771 0.000799
v -0.280154 -0.428781 0.002500
v -0.281411 -0.429949 0.000799
v -0.267361 -0.439370 0.002500
v -0.268267 -0.440828 0.000799
v -0.252484 -0.446016 0.002500
v -0.252960 -0.447667 0.000799
vn 0.9335 -0.3585 -0.0000
vn -0.1406 0.9901 -0.0000
vn -0.9926 0.1212 -0.0000
vn 0.9926 0.1212 -0.0000
vn 0.4079 0.9130 -0.0000
vn -0.9926 -0.1212 -0.0000
vn -0.6376 -0.7704 -0.0000
vn -0.8149 -0.5797 -0.0000
vn -0.9335 -0.3585 -0.0000
vn -0.4079 -0.9130 -0.0000
vn -0.0000 1.0000 -0.0000
vn 0.6376 0.7704 -0.0000
vn 0.8149 0.5797 -0.0000
vn 0.9335 0.3585 -0.0000
vn 0.9926 -0.1212 -0.0000
vn 1.0000 -0.0000 -0.0000
vn -0.9335 0.3585 -0.0000
vn -0.1406 -0.9901 -0.0000
vn -0.4079 0.9130 -0.0000
vn -0.6376 0.7704 -0.0000
vn -0.8149 0.5797 -0.0000
vn -1.0000 -0.0000 -0.0000
vn -0.0000 -1.0000 -0.0000
vn -0.0000 -0.0000 1.0000
vn 0.4079 -0.9130 -0.0000
vn 0.6376 -0.7704 -0.0000
vn 0.8149 -0.5797 -0.0000
vn 0.1406 -0.9901 -0.0000
vn 0.1406 0.9901 -0.0000
vn -0.0994 -0.7001 -0.7071
vn -0.0994 -0.7001 0.7071
vn -0.2884 -0.6456 -0.7071
vn -0.2885 -0.6456 0.7071
vn -0.4509 -0.5447 -0.7071
vn -0.4509 -0.5447 0.7071
vn -0.5762 -0.4099 -0.7071
vn -0.5762 -0.4099 0.7071
vn -0.6601 -0.2535 -0.7071
vn -0.6601 -0.2535 0.7071
vn -0.7019 -0.0857 -0.7071
vn -0.7019 -0.0857 0.7071
vn 0.0994 0.7001 -0.7071
vn 0.0994 0.7001 0.7071
vn 0.2884 0.6456 -0.7071
vn 0.2885 0.6456 0.7071
vn 0.4509 0.5447 -0.7071
vn 0.4509 0.5447 0.7071
vn 0.5762 0.4099 -0.7071
vn 0.5762 0.4099 0.7071
vn 0.6601 0.2535 -0.7071
vn 0.6601 0.2535 0.7071
vn 0.7019 0.0857 -0.7071
vn 0.7019 0.0857 0.7071
vn -0.0994 0.7001 0.7071
vn -0.0994 0.7001 -0.7071
vn -0.2884 0.6456 0.7071
vn -0.2885 0.6456 -0.7071
vn -0.4509 0.5447 0.7071
vn -0.4509 0.5447 -0.7071
vn -0.5762 0.4099 0.7071
vn -0.5762 0.4099 -0.7071
vn -0.6601 0.2535 0.7071
vn -0.6601 0.2535 -0.7071
vn -0.7019 0.0857 0.7071
vn -0.7019 0.0857 -0.7071
vn 0.0994 -0.7001 0.7071
vn 0.0994 -0.7001 -0.7071
vn 0.2884 -0.6456 0.7071
vn 0.2885 -0.6456 -0.7071
vn 0.4509 -0.5447 0.7071
vn 0.4509 -0.5447 -0.7071
vn 0.5762 -0.4099 0.7071
vn 0.5762 -0.4099 -0.7071
vn 0.6601 -0.2535 0.7071
vn 0.6601 -0.2535 -0.7071
vn 0.7019 -0.0857 0.7071
vn 0.7019 -0.0857 -0.7071
vn -0.0000 -0.7071 -0.7071
vn -0.7071 -0.0000 -0.7071
vn -0.0000 0.7071 -0.7071
vn 0.7071 -0.0000 -0.7071
vn 0.7071 -0.0000 0.7071
vn -0.0000 0.7071 0.7071
vn -0.0000 -0.7071 0.7071
vn -0.7071 -0.0000 0.7071
vn -0.0000 -0.0000 -1.0000
vn -0.2885 -0.6456 -0.7071
vn -0.2884 -0.6456 0.7071
vn 0.2885 0.6456 -0.7071
vn 0.2884 0.6456 0.7071
vn -0.2885 0.6456 0.7071
vn -0.2884 0.6456 -0.7071
vn 0.2885 -0.6456 0.7071
vn 0.2884 -0.6456 -0.7071
vt 0.210133 0.999384
vt 0.012591 0.999212
vt 0.210093 0.998938
vt 0.221965 0.986468
vt 0.001247 0.986956
vt 0.221520 0.986432
vt 0.213229 0.998885
vt 0.009645 0.998793
vt 0.213089 0.998435
vt 0.216084 0.997538
vt 0.006918 0.997575
vt 0.215834 0.997152
vt 0.218503 0.995464
vt 0.004573 0.995634
vt 0.218164 0.995160
vt 0.220336 0.992807
vt 0.002771 0.993100
vt 0.219934 0.992598
vt 0.221482 0.989752
vt 0.001636 0.990147
vt 0.221047 0.989640
vt 0.221965 0.847471
vt 0.001247 0.847118
vt 0.221524 0.847506
vt 0.210113 0.834587
vt 0.012591 0.834862
vt 0.210074 0.835037
vt 0.221480 0.844199
vt 0.001636 0.843927
vt 0.221047 0.844310
vt 0.220334 0.841151
vt 0.002771 0.840973
vt 0.219933 0.841360
vt 0.218500 0.838499
vt 0.004573 0.838440
vt 0.218162 0.838804
vt 0.216080 0.836429
vt 0.006918 0.836499
vt 0.215831 0.836815
vt 0.213221 0.835083
vt 0.009645 0.835281
vt 0.213081 0.835535
vt 0.220784 0.986377
vt 0.221223 0.986410
vt 0.210029 0.998195
vt 0.210067 0.998640
vt 0.220349 0.989459
vt 0.220765 0.989567
vt 0.219297 0.992262
vt 0.219676 0.992462
vt 0.217629 0.994673
vt 0.217947 0.994962
vt 0.215443 0.996540
vt 0.215675 0.996903
vt 0.212876 0.997740
vt 0.213003 0.998153
vt 0.210012 0.835780
vt 0.210048 0.835336
vt 0.220788 0.847562
vt 0.221229 0.847529
vt 0.212866 0.836230
vt 0.212993 0.835816
vt 0.215438 0.837427
vt 0.215670 0.837063
vt 0.217627 0.839290
vt 0.217944 0.839000
vt 0.219296 0.841696
vt 0.219675 0.841495
vt 0.220351 0.844490
vt 0.220765 0.844382
vt 0.111967 0.986675
vt 0.110605 0.986956
vt 0.112408 0.986640
vt 0.123819 0.999560
vt 0.099261 0.999212
vt 0.123858 0.999109
vt 0.112451 0.989947
vt 0.110216 0.990147
vt 0.112885 0.989836
vt 0.113598 0.992995
vt 0.109081 0.993101
vt 0.113998 0.992786
vt 0.115431 0.995647
vt 0.107279 0.995634
vt 0.115770 0.995342
vt 0.117851 0.997717
vt 0.104934 0.997575
vt 0.118101 0.997331
vt 0.120711 0.999063
vt 0.102207 0.998793
vt 0.120851 0.998611
vt 0.123798 0.834762
vt 0.099261 0.834862
vt 0.123838 0.835208
vt 0.111967 0.847678
vt 0.110605 0.847118
vt 0.112412 0.847714
vt 0.120703 0.835261
vt 0.102207 0.835281
vt 0.120842 0.835711
vt 0.117847 0.836608
vt 0.104934 0.836499
vt 0.118098 0.836994
vt 0.115429 0.838682
vt 0.107279 0.838440
vt 0.115768 0.838986
vt 0.113596 0.841339
vt 0.109081 0.840973
vt 0.113997 0.841548
vt 0.112450 0.844394
vt 0.110216 0.843928
vt 0.112885 0.844506
vt 0.123920 0.998366
vt 0.123884 0.998810
vt 0.113144 0.986584
vt 0.112703 0.986617
vt 0.121066 0.997916
vt 0.120939 0.998330
vt 0.118493 0.996719
vt 0.118262 0.997083
vt 0.116305 0.994856
vt 0.115988 0.995146
vt 0.114636 0.992450
vt 0.114257 0.992651
vt 0.113581 0.989656
vt 0.113167 0.989764
vt 0.113148 0.847769
vt 0.112708 0.847736
vt 0.123902 0.835951
vt 0.123865 0.835506
vt 0.113582 0.844687
vt 0.113167 0.844579
vt 0.114635 0.841884
vt 0.114256 0.841684
vt 0.116303 0.839473
vt 0.115985 0.839184
vt 0.118489 0.837606
vt 0.118256 0.837243
vt 0.121056 0.836406
vt 0.120929 0.835993
s 0
usemtl Material
f 22/33/1 56/70/1 54/68/1
f 60/76/2 90/118/2 86/114/2
f 62/79/3 88/116/3 98/126/3
f 34/48/4 4/6/4 14/21/4
f 42/56/5 8/12/5 6/9/5
f 104/132/6 74/97/6 84/112/6
f 110/138/7 80/106/7 78/103/7
f 108/136/8 82/109/8 80/106/8
f 106/134/9 84/112/9 82/109/9
f 112/140/10 78/103/10 76/100/10
f 60/76/11 32/46/11 2/3/11
f 40/54/12 10/15/12 8/12/12
f 38/52/13 12/18/13 10/15/13
f 36/50/14 14/21/14 12/18/14
f 20/30/15 46/60/15 56/70/15
f 4/6/16 46/60/16 16/24/16
f 64/82/17 98/126/17 96/124/17
f 102/130/18 76/100/18 72/94/18
f 70/91/19 92/120/19 90/118/19
f 68/88/20 94/122/20 92/120/20
f 66/85/21 96/124/21 94/122/21
f 88/116/22 74/97/22 100/128/22
f 18/27/23 102/130/23 72/94/23
f 29/43/24 89/117/24 105/133/24
f 28/42/25 50/64/25 48/62/25
f 26/39/26 52/66/26 50/64/26
f 24/36/27 54/68/27 52/66/27
f 18/27/28 48/62/28 44/58/28
f 32/46/29 6/9/29 2/3/29
f 75/98/30 72/94/30 76/100/30
f 111/139/31 102/130/31 101/129/31
f 75/98/32 78/103/32 77/101/32
f 111/139/33 110/138/33 112/140/33
f 77/101/34 80/106/34 79/104/34
f 109/137/35 108/136/35 110/138/35
f 79/104/36 82/109/36 81/107/36
f 107/135/37 106/134/37 108/136/37
f 81/107/38 84/112/38 83/110/38
f 105/133/39 104/132/39 106/134/39
f 83/110/40 74/97/40 73/95/40
f 103/131/41 100/128/41 104/132/41
f 5/7/42 2/3/42 6/9/42
f 41/55/43 32/46/43 31/45/43
f 5/7/44 8/12/44 7/10/44
f 41/55/45 40/54/45 42/56/45
f 7/10/46 10/15/46 9/13/46
f 39/53/47 38/52/47 40/54/47
f 9/13/48 12/18/48 11/16/48
f 37/51/49 36/50/49 38/52/49
f 11/16/50 14/21/50 13/19/50
f 35/49/51 34/48/51 36/50/51
f 13/19/52 4/6/52 3/4/52
f 33/47/53 30/44/53 34/48/53
f 89/117/54 86/114/54 90/118/54
f 69/89/55 60/76/55 59/74/55
f 89/117/56 92/120/56 91/119/56
f 69/89/57 68/88/57 70/91/57
f 91/119/58 94/122/58 93/121/58
f 67/86/59 66/85/59 68/88/59
f 93/121/60 96/124/60 95/123/60
f 65/83/61 64/82/61 66/85/61
f 95/123/62 98/126/62 97/125/62
f 63/80/63 62/79/63 64/82/63
f 97/125/64 88/116/64 87/115/64
f 61/77/65 58/73/65 62/79/65
f 47/61/66 44/58/66 48/62/66
f 27/40/67 18/27/67 17/25/67
f 47/61/68 50/64/68 49/63/68
f 27/40/69 26/39/69 28/42/69
f 49/63/70 52/66/70 51/65/70
f 25/37/71 24/36/71 26/39/71
f 51/65/72 54/68/72 53/67/72
f 23/34/73 22/33/73 24/36/73
f 53/67/74 56/70/74 55/69/74
f 21/31/75 20/30/75 22/33/75
f 55/69/76 46/60/76 45/59/76
f 19/28/77 16/24/77 20/30/77
f 72/94/78 17/25/78 18/27/78
f 58/73/79 73/95/79 74/97/79
f 2/3/80 59/74/80 60/76/80
f 16/24/81 3/4/81 4/6/81
f 45/59/82 30/44/82 29/43/82
f 31/45/83 86/114/83 85/113/83
f 101/129/84 44/58/84 43/57/84
f 100/128/85 87/115/85 88/116/85
f 57/72/86 5/8/86 21/32/86
f 22/33/1 20/30/1 56/70/1
f 60/76/2 70/91/2 90/118/2
f 62/79/3 58/73/3 88/116/3
f 34/48/4 30/44/4 4/6/4
f 42/56/5 40/54/5 8/12/5
f 104/132/6 100/128/6 74/97/6
f 110/138/7 108/136/7 80/106/7
f 108/136/8 106/134/8 82/109/8
f 106/134/9 104/132/9 84/112/9
f 112/140/10 110/138/10 78/103/10
f 60/76/11 86/114/11 32/46/11
f 40/54/12 38/52/12 10/15/12
f 38/52/13 36/50/13 12/18/13
f 36/50/14 34/48/14 14/21/14
f 20/30/15 16/24/15 46/60/15
f 4/6/16 30/44/16 46/60/16
f 64/82/17 62/79/17 98/126/17
f 102/130/18 112/140/18 76/100/18
f 70/91/19 68/88/19 92/120/19
f 68/88/20 66/85/20 94/122/20
f 66/85/21 64/82/21 96/124/21
f 88/116/22 58/73/22 74/97/22
f 18/27/23 44/58/23 102/130/23
f 101/129/24 43/57/24 47/61/24
f 47/61/24 49/63/24 51/65/24
f 51/65/24 53/67/24 55/69/24
f 55/69/24 45/59/24 29/43/24
f 29/43/24 33/47/24 35/49/24
f 35/49/24 37/51/24 39/53/24
f 39/53/24 41/55/24 31/45/24
f 31/45/24 85/113/24 89/117/24
f 89/117/24 91/119/24 93/121/24
f 93/121/24 95/123/24 97/125/24
f 97/125/24 87/115/24 99/127/24
f 99/127/24 103/131/24 105/133/24
f 105/133/24 107/135/24 109/137/24
f 109/137/24 111/139/24 101/129/24
f 101/129/24 47/61/24 51/65/24
f 51/65/24 55/69/24 29/43/24
f 29/43/24 35/49/24 39/53/24
f 39/53/24 31/45/24 89/117/24
f 89/117/24 93/121/24 97/125/24
f 97/125/24 99/127/24 105/133/24
f 105/133/24 109/137/24 101/129/24
f 101/129/24 51/65/24 29/43/24
f 29/43/24 39/53/24 89/117/24
f 89/117/24 97/125/24 105/133/24
f 105/133/24 101/129/24 29/43/24
f 28/42/25 26/39/25 50/64/25
f 26/39/26 24/36/26 52/66/26
f 24/36/27 22/33/27 54/68/27
f 18/27/28 28/42/28 48/62/28
f 32/46/29 42/56/29 6/9/29
f 75/98/30 71/92/30 72/94/30
f 111/139/31 112/140/31 102/130/31
f 75/98/87 76/100/87 78/103/87
f 111/139/88 109/137/88 110/138/88
f 77/101/34 78/103/34 80/106/34
f 109/137/35 107/135/35 108/136/35
f 79/104/36 80/106/36 82/109/36
f 107/135/37 105/133/37 106/134/37
f 81/107/38 82/109/38 84/112/38
f 105/133/39 103/131/39 104/132/39
f 83/110/40 84/112/40 74/97/40
f 103/131/41 99/127/41 100/128/41
f 5/7/42 1/1/42 2/3/42
f 41/55/43 42/56/43 32/46/43
f 5/7/89 6/9/89 8/12/89
f 41/55/90 39/53/90 40/54/90
f 7/10/46 8/12/46 10/15/46
f 39/53/47 37/51/47 38/52/47
f 9/13/48 10/15/48 12/18/48
f 37/51/49 35/49/49 36/50/49
f 11/16/50 12/18/50 14/21/50
f 35/49/51 33/47/51 34/48/51
f 13/19/52 14/21/52 4/6/52
f 33/47/53 29/43/53 30/44/53
f 89/117/54 85/113/54 86/114/54
f 69/89/55 70/91/55 60/76/55
f 89/117/91 90/118/91 92/120/91
f 69/89/92 67/86/92 68/88/92
f 91/119/58 92/120/58 94/122/58
f 67/86/59 65/83/59 66/85/59
f 93/121/60 94/122/60 96/124/60
f 65/83/61 63/80/61 64/82/61
f 95/123/62 96/124/62 98/126/62
f 63/80/63 61/77/63 62/79/63
f 97/125/64 98/126/64 88/116/64
f 61/77/65 57/71/65 58/73/65
f 47/61/66 43/57/66 44/58/66
f 27/40/67 28/42/67 18/27/67
f 47/61/93 48/62/93 50/64/93
f 27/40/94 25/37/94 26/39/94
f 49/63/70 50/64/70 52/66/70
f 25/37/71 23/34/71 24/36/71
f 51/65/72 52/66/72 54/68/72
f 23/34/73 21/31/73 22/33/73
f 53/67/74 54/68/74 56/70/74
f 21/31/75 19/28/75 20/30/75
f 55/69/76 56/70/76 46/60/76
f 19/28/77 15/22/77 16/24/77
f 72/94/78 71/92/78 17/25/78
f 58/73/79 57/71/79 73/95/79
f 2/3/80 1/1/80 59/74/80
f 16/24/81 15/22/81 3/4/81
f 45/59/82 46/60/82 30/44/82
f 31/45/83 32/46/83 86/114/83
f 101/129/84 102/130/84 44/58/84
f 100/128/85 99/127/85 87/115/85
f 17/26/86 71/93/86 75/99/86
f 75/99/86 77/102/86 79/105/86
f 79/105/86 81/108/86 83/111/86
f 83/111/86 73/96/86 57/72/86
f 57/72/86 61/78/86 63/81/86
f 63/81/86 65/84/86 67/87/86
f 67/87/86 69/90/86 59/75/86
f 59/75/86 1/2/86 5/8/86
f 5/8/86 7/11/86 9/14/86
f 9/14/86 11/17/86 13/20/86
f 13/20/86 3/5/86 15/23/86
f 15/23/86 19/29/86 21/32/86
f 21/32/86 23/35/86 25/38/86
f 25/38/86 27/41/86 17/26/86
f 17/26/86 75/99/86 79/105/86
f 79/105/86 83/111/86 57/72/86
f 57/72/86 63/81/86 67/87/86
f 67/87/86 59/75/86 5/8/86
f 5/8/86 9/14/86 13/20/86
f 13/20/86 15/23/86 21/32/86
f 21/32/86 25/38/86 17/26/86
f 17/26/86 79/105/86 57/72/86
f 57/72/86 67/87/86 5/8/86
f 5/8/86 13/20/86 21/32/86
f 21/32/86 17/26/86 57/72/86
