{
	"asset":{
		"generator":"Khronos glTF Blender I/O v3.5.30",
		"version":"2.0"
	},
	"scene":0,
	"scenes":[
		{
			"name":"Scene",
			"nodes":[
				0,
				1,
				2,
				3,
				4,
				5
			]
		}
	],
	"nodes":[
		{
			"mesh":0,
			"name":"Cylinder"
		},
		{
			"mesh":1,
			"name":"Cube",
			"translation":[
				0,
				1.9378507137298584,
				-0.044282328337430954
			]
		},
		{
			"mesh":2,
			"name":"Icosphere",
			"translation":[
				0,
				1.9378507137298584,
				0.11105179786682129
			]
		},
		{
			"mesh":2,
			"name":"Icosphere.001",
			"rotation":[
				0,
				0,
				-0.8660253882408142,
				0.4999999701976776
			],
			"translation":[
				0,
				1.9378507137298584,
				0.11105179786682129
			]
		},
		{
			"mesh":2,
			"name":"Icosphere.002",
			"rotation":[
				0,
				0,
				0.8660253882408142,
				0.4999999701976776
			],
			"translation":[
				0,
				1.9378507137298584,
				0.11105179786682129
			]
		},
		{
			"mesh":3,
			"name":"Sphere",
			"scale":[
				0.041820451617240906,
				0.041820451617240906,
				0.041820451617240906
			],
			"translation":[
				0,
				1.9378507137298584,
				0.09230020642280579
			]
		}
	],
	"materials":[
		{
			"doubleSided":true,
			"name":"Material.001",
			"pbrMetallicRoughness":{
				"baseColorFactor":[
					0.3031974732875824,
					0.3031974732875824,
					0.3031974732875824,
					1
				],
				"metallicFactor":0,
				"roughnessFactor":0.5
			}
		},
		{
			"doubleSided":true,
			"name":"Material",
			"pbrMetallicRoughness":{
				"baseColorFactor":[
					0.800000011920929,
					0.800000011920929,
					0.800000011920929,
					1
				],
				"metallicFactor":0,
				"roughnessFactor":0.20000000298023224
			}
		}
	],
	"meshes":[
		{
			"name":"Cylinder",
			"primitives":[
				{
					"attributes":{
						"POSITION":0,
						"TEXCOORD_0":1,
						"NORMAL":2
					},
					"indices":3,
					"material":0
				}
			]
		},
		{
			"name":"Cube.001",
			"primitives":[
				{
					"attributes":{
						"POSITION":4,
						"TEXCOORD_0":5,
						"NORMAL":6
					},
					"indices":7,
					"material":1
				}
			]
		},
		{
			"name":"Icosphere",
			"primitives":[
				{
					"attributes":{
						"POSITION":8,
						"TEXCOORD_0":9,
						"NORMAL":10
					},
					"indices":11,
					"material":1
				}
			]
		},
		{
			"name":"Sphere",
			"primitives":[
				{
					"attributes":{
						"POSITION":12,
						"TEXCOORD_0":13,
						"NORMAL":14
					},
					"indices":15,
					"material":1
				}
			]
		}
	],
	"accessors":[
		{
			"bufferView":0,
			"componentType":5126,
			"count":66,
			"max":[
				0.076292484998703,
				2,
				0.076292484998703
			],
			"min":[
				-0.076292484998703,
				0,
				-0.076292484998703
			],
			"type":"VEC3"
		},
		{
			"bufferView":1,
			"componentType":5126,
			"count":66,
			"type":"VEC2"
		},
		{
			"bufferView":2,
			"componentType":5126,
			"count":66,
			"type":"VEC3"
		},
		{
			"bufferView":3,
			"componentType":5123,
			"count":180,
			"type":"SCALAR"
		},
		{
			"bufferView":4,
			"componentType":5126,
			"count":54,
			"max":[
				0.07070913165807724,
				0.07070913165807724,
				0.14109553396701813
			],
			"min":[
				-0.07070913165807724,
				-0.07070913165807724,
				-0.18045759201049805
			],
			"type":"VEC3"
		},
		{
			"bufferView":5,
			"componentType":5126,
			"count":54,
			"type":"VEC2"
		},
		{
			"bufferView":6,
			"componentType":5126,
			"count":54,
			"type":"VEC3"
		},
		{
			"bufferView":7,
			"componentType":5123,
			"count":144,
			"type":"SCALAR"
		},
		{
			"bufferView":8,
			"componentType":5126,
			"count":16,
			"max":[
				0.045640911906957626,
				1.2526636123657227,
				0.010187296196818352
			],
			"min":[
				-0.09790216386318207,
				0.025512078776955605,
				0
			],
			"type":"VEC3"
		},
		{
			"bufferView":9,
			"componentType":5126,
			"count":16,
			"type":"VEC2"
		},
		{
			"bufferView":10,
			"componentType":5126,
			"count":16,
			"type":"VEC3"
		},
		{
			"bufferView":11,
			"componentType":5123,
			"count":39,
			"type":"SCALAR"
		},
		{
			"bufferView":12,
			"componentType":5126,
			"count":151,
			"max":[
				1.2263455390930176,
				1.2263447046279907,
				1.998201847076416
			],
			"min":[
				-1.226345419883728,
				-1.2263463735580444,
				-2.6282784938812256
			],
			"type":"VEC3"
		},
		{
			"bufferView":13,
			"componentType":5126,
			"count":151,
			"type":"VEC2"
		},
		{
			"bufferView":14,
			"componentType":5126,
			"count":151,
			"type":"VEC3"
		},
		{
			"bufferView":15,
			"componentType":5123,
			"count":672,
			"type":"SCALAR"
		}
	],
	"bufferViews":[
		{
			"buffer":0,
			"byteLength":792,
			"byteOffset":0,
			"target":34962
		},
		{
			"buffer":0,
			"byteLength":528,
			"byteOffset":792,
			"target":34962
		},
		{
			"buffer":0,
			"byteLength":792,
			"byteOffset":1320,
			"target":34962
		},
		{
			"buffer":0,
			"byteLength":360,
			"byteOffset":2112,
			"target":34963
		},
		{
			"buffer":0,
			"byteLength":648,
			"byteOffset":2472,
			"target":34962
		},
		{
			"buffer":0,
			"byteLength":432,
			"byteOffset":3120,
			"target":34962
		},
		{
			"buffer":0,
			"byteLength":648,
			"byteOffset":3552,
			"target":34962
		},
		{
			"buffer":0,
			"byteLength":288,
			"byteOffset":4200,
			"target":34963
		},
		{
			"buffer":0,
			"byteLength":192,
			"byteOffset":4488,
			"target":34962
		},
		{
			"buffer":0,
			"byteLength":128,
			"byteOffset":4680,
			"target":34962
		},
		{
			"buffer":0,
			"byteLength":192,
			"byteOffset":4808,
			"target":34962
		},
		{
			"buffer":0,
			"byteLength":78,
			"byteOffset":5000,
			"target":34963
		},
		{
			"buffer":0,
			"byteLength":1812,
			"byteOffset":5080,
			"target":34962
		},
		{
			"buffer":0,
			"byteLength":1208,
			"byteOffset":6892,
			"target":34962
		},
		{
			"buffer":0,
			"byteLength":1812,
			"byteOffset":8100,
			"target":34962
		},
		{
			"buffer":0,
			"byteLength":1344,
			"byteOffset":9912,
			"target":34963
		}
	],
	"buffers":[
		{
			"byteLength":11256,
			"uri":"windturbine.bin"
		}
	]
}
