{
    "asset" : {
        "generator" : "Khronos glTF Blender I/O v3.2.40",
        "version" : "2.0"
    },
    "scene" : 0,
    "scenes" : [
        {
            "name" : "Scene",
            "nodes" : [
                0,
                1,
                2,
                3,
                4,
                5
            ]
        }
    ],
    "nodes" : [
        {
            "mesh" : 0,
            "name" : "Cylinder"
        },
        {
            "mesh" : 1,
            "name" : "Cube",
            "translation" : [
                0,
                1.9378507137298584,
                -0.044282328337430954
            ]
        },
        {
            "mesh" : 2,
            "name" : "Icosphere",
            "translation" : [
                0,
                1.9378507137298584,
                0.11105179786682129
            ]
        },
        {
            "mesh" : 2,
            "name" : "Icosphere.001",
            "rotation" : [
                0,
                0,
                -0.8660253882408142,
                0.4999999701976776
            ],
            "translation" : [
                0,
                1.9378507137298584,
                0.11105179786682129
            ]
        },
        {
            "mesh" : 2,
            "name" : "Icosphere.002",
            "rotation" : [
                0,
                0,
                0.8660253882408142,
                0.4999999701976776
            ],
            "translation" : [
                0,
                1.9378507137298584,
                0.11105179786682129
            ]
        },
        {
            "mesh" : 3,
            "name" : "Sphere",
            "scale" : [
                0.041820451617240906,
                0.041820451617240906,
                0.041820451617240906
            ],
            "translation" : [
                0,
                1.9378507137298584,
                0.09230020642280579
            ]
        }
    ],
    "materials" : [
        {
            "doubleSided" : true,
            "name" : "Material.001",
            "pbrMetallicRoughness" : {
                "baseColorFactor" : [
                    0.3031974732875824,
                    0.3031974732875824,
                    0.3031974732875824,
                    1
                ],
                "metallicFactor" : 0.5634920597076416,
                "roughnessFactor" : 0.699999988079071
            }
        },
        {
            "doubleSided" : true,
            "name" : "Material",
            "pbrMetallicRoughness" : {
                "metallicFactor" : 0.5,
                "roughnessFactor" : 0.30000001192092896
            }
        }
    ],
    "meshes" : [
        {
            "name" : "Cylinder",
            "primitives" : [
                {
                    "attributes" : {
                        "POSITION" : 0,
                        "NORMAL" : 1,
                        "TEXCOORD_0" : 2
                    },
                    "indices" : 3,
                    "material" : 0
                }
            ]
        },
        {
            "name" : "Cube.001",
            "primitives" : [
                {
                    "attributes" : {
                        "POSITION" : 4,
                        "NORMAL" : 5,
                        "TEXCOORD_0" : 6
                    },
                    "indices" : 7,
                    "material" : 1
                }
            ]
        },
        {
            "name" : "Icosphere",
            "primitives" : [
                {
                    "attributes" : {
                        "POSITION" : 8,
                        "NORMAL" : 9,
                        "TEXCOORD_0" : 10
                    },
                    "indices" : 11,
                    "material" : 1
                }
            ]
        },
        {
            "name" : "Sphere",
            "primitives" : [
                {
                    "attributes" : {
                        "POSITION" : 12,
                        "NORMAL" : 13,
                        "TEXCOORD_0" : 14
                    },
                    "indices" : 15,
                    "material" : 1
                }
            ]
        }
    ],
    "accessors" : [
        {
            "bufferView" : 0,
            "componentType" : 5126,
            "count" : 66,
            "max" : [
                0.076292484998703,
                2,
                0.076292484998703
            ],
            "min" : [
                -0.076292484998703,
                0,
                -0.076292484998703
            ],
            "type" : "VEC3"
        },
        {
            "bufferView" : 1,
            "componentType" : 5126,
            "count" : 66,
            "type" : "VEC3"
        },
        {
            "bufferView" : 2,
            "componentType" : 5126,
            "count" : 66,
            "type" : "VEC2"
        },
        {
            "bufferView" : 3,
            "componentType" : 5123,
            "count" : 180,
            "type" : "SCALAR"
        },
        {
            "bufferView" : 4,
            "componentType" : 5126,
            "count" : 54,
            "max" : [
                0.07070913165807724,
                0.07070913165807724,
                0.14109553396701813
            ],
            "min" : [
                -0.07070913165807724,
                -0.07070913165807724,
                -0.18045759201049805
            ],
            "type" : "VEC3"
        },
        {
            "bufferView" : 5,
            "componentType" : 5126,
            "count" : 54,
            "type" : "VEC3"
        },
        {
            "bufferView" : 6,
            "componentType" : 5126,
            "count" : 54,
            "type" : "VEC2"
        },
        {
            "bufferView" : 7,
            "componentType" : 5123,
            "count" : 144,
            "type" : "SCALAR"
        },
        {
            "bufferView" : 8,
            "componentType" : 5126,
            "count" : 56,
            "max" : [
                0.045685064047575,
                1.2527018785476685,
                0.03323937952518463
            ],
            "min" : [
                -0.08862142264842987,
                0.025512078776955605,
                0
            ],
            "type" : "VEC3"
        },
        {
            "bufferView" : 9,
            "componentType" : 5126,
            "count" : 56,
            "type" : "VEC3"
        },
        {
            "bufferView" : 10,
            "componentType" : 5126,
            "count" : 56,
            "type" : "VEC2"
        },
        {
            "bufferView" : 11,
            "componentType" : 5123,
            "count" : 120,
            "type" : "SCALAR"
        },
        {
            "bufferView" : 12,
            "componentType" : 5126,
            "count" : 151,
            "max" : [
                1.2263455390930176,
                1.2263447046279907,
                1.998201847076416
            ],
            "min" : [
                -1.226345419883728,
                -1.2263463735580444,
                -2.6282784938812256
            ],
            "type" : "VEC3"
        },
        {
            "bufferView" : 13,
            "componentType" : 5126,
            "count" : 151,
            "type" : "VEC3"
        },
        {
            "bufferView" : 14,
            "componentType" : 5126,
            "count" : 151,
            "type" : "VEC2"
        },
        {
            "bufferView" : 15,
            "componentType" : 5123,
            "count" : 672,
            "type" : "SCALAR"
        }
    ],
    "bufferViews" : [
        {
            "buffer" : 0,
            "byteLength" : 792,
            "byteOffset" : 0
        },
        {
            "buffer" : 0,
            "byteLength" : 792,
            "byteOffset" : 792
        },
        {
            "buffer" : 0,
            "byteLength" : 528,
            "byteOffset" : 1584
        },
        {
            "buffer" : 0,
            "byteLength" : 360,
            "byteOffset" : 2112
        },
        {
            "buffer" : 0,
            "byteLength" : 648,
            "byteOffset" : 2472
        },
        {
            "buffer" : 0,
            "byteLength" : 648,
            "byteOffset" : 3120
        },
        {
            "buffer" : 0,
            "byteLength" : 432,
            "byteOffset" : 3768
        },
        {
            "buffer" : 0,
            "byteLength" : 288,
            "byteOffset" : 4200
        },
        {
            "buffer" : 0,
            "byteLength" : 672,
            "byteOffset" : 4488
        },
        {
            "buffer" : 0,
            "byteLength" : 672,
            "byteOffset" : 5160
        },
        {
            "buffer" : 0,
            "byteLength" : 448,
            "byteOffset" : 5832
        },
        {
            "buffer" : 0,
            "byteLength" : 240,
            "byteOffset" : 6280
        },
        {
            "buffer" : 0,
            "byteLength" : 1812,
            "byteOffset" : 6520
        },
        {
            "buffer" : 0,
            "byteLength" : 1812,
            "byteOffset" : 8332
        },
        {
            "buffer" : 0,
            "byteLength" : 1208,
            "byteOffset" : 10144
        },
        {
            "buffer" : 0,
            "byteLength" : 1344,
            "byteOffset" : 11352
        }
    ],
    "buffers" : [
        {
            "byteLength" : 12696,
            "uri" : "windturbine.bin"
        }
    ]
}
