{
	"asset":{
		"generator":"Khronos glTF Blender I/O v3.5.30",
		"version":"2.0"
	},
	"scene":0,
	"scenes":[
		{
			"name":"Scene",
			"nodes":[
				0
			]
		}
	],
	"nodes":[
		{
			"mesh":0,
			"name":"Bank",
			"translation":[
				0,
				0.5,
				0
			]
		}
	],
	"materials":[
		{
			"doubleSided":true,
			"name":"Material",
			"pbrMetallicRoughness":{}
		}
	],
	"meshes":[
		{
			"name":"Plane.001",
			"primitives":[
				{
					"attributes":{
						"POSITION":0,
						"TEXCOORD_0":1,
						"NORMAL":2
					},
					"indices":3,
					"material":0
				}
			]
		}
	],
	"accessors":[
		{
			"bufferView":0,
			"componentType":5126,
			"count":51,
			"max":[
				0.8235337138175964,
				0.5,
				0.2925761342048645
			],
			"min":[
				-0.8235337138175964,
				-0.5,
				-0.5314446091651917
			],
			"type":"VEC3"
		},
		{
			"bufferView":1,
			"componentType":5126,
			"count":51,
			"type":"VEC2"
		},
		{
			"bufferView":2,
			"componentType":5126,
			"count":51,
			"type":"VEC3"
		},
		{
			"bufferView":3,
			"componentType":5123,
			"count":96,
			"type":"SCALAR"
		}
	],
	"bufferViews":[
		{
			"buffer":0,
			"byteLength":612,
			"byteOffset":0,
			"target":34962
		},
		{
			"buffer":0,
			"byteLength":408,
			"byteOffset":612,
			"target":34962
		},
		{
			"buffer":0,
			"byteLength":612,
			"byteOffset":1020,
			"target":34962
		},
		{
			"buffer":0,
			"byteLength":192,
			"byteOffset":1632,
			"target":34963
		}
	],
	"buffers":[
		{
			"byteLength":1824,
			"uri":"bank.bin"
		}
	]
}
